<svg width="79" height="35" viewBox="0 0 79 35" fill="none" xmlns="http://www.w3.org/2000/svg">
<path d="M27.7586 0H0V35L18.3312 11.938L9.16559 8.68216H20.9499L27.7586 0Z" fill="black"/>
<path d="M38.8906 11.094V15H36.8386V4.2H44.2906V6.09H38.8906V9.312H43.7686V11.094H38.8906ZM49.3532 15.216C46.7612 15.216 45.0872 13.704 45.0872 10.878C45.0872 8.016 46.7072 6.324 49.3532 6.324C51.8912 6.324 53.1512 7.872 53.1512 10.194C53.1512 10.536 53.1332 10.896 53.1152 11.328H47.0312C47.1752 12.858 47.9492 13.632 49.3712 13.632C50.7212 13.632 51.1892 12.984 51.4232 12.174L53.0792 12.642C52.6652 14.172 51.6392 15.216 49.3532 15.216ZM47.0312 10.032H51.3692C51.2972 8.574 50.6492 7.818 49.2992 7.818C47.9852 7.818 47.2292 8.52 47.0312 10.032ZM56.5499 6.54V9.078L56.7119 9.096C57.1979 7.062 57.9899 6.45 59.2139 6.45H59.5199V8.628H59.0519C57.2699 8.628 56.6399 9.258 56.6399 10.986V15H54.7139V6.54H56.5499ZM60.2923 10.806C60.2923 7.908 61.4263 6.306 63.4243 6.324C64.9543 6.306 65.8903 7.296 66.3223 8.754H66.4483V3.444H68.3743V15H66.4483V12.768H66.3223C65.9083 14.208 64.9003 15.234 63.3703 15.234C61.4263 15.234 60.2923 13.686 60.2923 10.806ZM66.4483 11.148V10.5C66.4483 9.042 65.6023 8.07 64.2883 8.07C62.9023 8.07 62.2003 8.988 62.2003 10.806C62.2003 12.624 62.8483 13.506 64.2883 13.506C65.5843 13.506 66.4483 12.588 66.4483 11.148ZM72.4456 6.54V15H70.5196V6.54H72.4456ZM72.5356 3.534V5.1H70.4296V3.534H72.5356ZM41.4826 31.234H41.3926L41.1226 31.882C41.3566 31.792 41.5906 31.756 41.8246 31.756C42.5446 31.756 43.1386 32.026 43.1386 32.8C43.1386 33.286 42.7426 34.024 41.4826 34.024C40.7446 34.024 40.1326 33.862 39.6466 33.52L40.0966 32.818C40.4746 33.034 40.8706 33.232 41.4646 33.232C42.0226 33.232 42.2026 33.016 42.2026 32.746C42.2026 32.44 41.9686 32.278 41.5006 32.278C41.1946 32.278 40.9606 32.332 40.7986 32.386L40.2226 32.152L40.5826 31.162C37.8286 30.802 36.2806 28.732 36.2806 25.582C36.2806 22.09 38.2966 19.966 41.5366 19.966C44.3446 19.966 46.0186 21.496 46.3966 24.088L44.4346 24.466C44.0926 22.72 43.2106 21.766 41.5006 21.766C39.3046 21.766 38.3326 23.368 38.3326 25.582C38.3326 27.958 39.3046 29.452 41.4826 29.452C43.3006 29.452 44.1286 28.48 44.4886 26.68L46.4326 27.04C46.0726 29.65 44.3446 31.234 41.4826 31.234ZM50.2134 22.54V31H48.2694V22.54H50.2134ZM52.5706 19.444H54.5146V31H52.5706V19.444ZM56.0912 26.806C56.0912 23.908 57.2252 22.306 59.2232 22.324C60.7532 22.306 61.6892 23.296 62.1212 24.754H62.2472V19.444H64.1732V31H62.2472V28.768H62.1212C61.7072 30.208 60.6992 31.234 59.1692 31.234C57.2252 31.234 56.0912 29.686 56.0912 26.806ZM62.2472 27.148V26.5C62.2472 25.042 61.4012 24.07 60.0872 24.07C58.7012 24.07 57.9992 24.988 57.9992 26.806C57.9992 28.624 58.6472 29.506 60.0872 29.506C61.3832 29.506 62.2472 28.588 62.2472 27.148ZM68.4244 22.54V31H66.4804V22.54H68.4244ZM75.5335 29.326H77.8375V31H70.3855V29.308L75.6415 24.16L75.5515 23.98C74.5255 24.106 73.3195 24.232 72.3295 24.232H70.5295V22.54H77.7835V24.232L72.5095 29.38L72.5995 29.578C73.5535 29.434 74.6155 29.326 75.5335 29.326Z" fill="black"/>
</svg>
