<svg width="33" height="32" viewBox="0 0 33 32" fill="none" xmlns="http://www.w3.org/2000/svg">
<path d="M15.9788 7C15.3909 6.0801 14.5809 5.32307 13.6234 4.79876C12.6658 4.27445 11.5917 3.99974 10.5 4C10.0144 4.83956 9.72314 5.77729 9.64765 6.74423C9.57215 7.71117 9.71434 8.68274 10.0638 9.5875C9.37968 10.5949 9.00951 11.7824 9 13V14C9 15.5913 9.63214 17.1174 10.7574 18.2426C11.8826 19.3679 13.4087 20 15 20H21C22.5913 20 24.1174 19.3679 25.2426 18.2426C26.3679 17.1174 27 15.5913 27 14V13C26.9905 11.7824 26.6203 10.5949 25.9363 9.5875C26.2857 8.68274 26.4278 7.71117 26.3524 6.74423C26.2769 5.77729 25.9856 4.83956 25.5 4C24.4083 3.99974 23.3342 4.27445 22.3766 4.79876C21.4191 5.32307 20.6091 6.0801 20.0212 7H15.9788Z" stroke="#343330" stroke-width="2.5" stroke-linecap="round" stroke-linejoin="round"/>
<path d="M14 29V24C14 22.9391 14.4214 21.9217 15.1716 21.1716C15.9217 20.4214 16.9391 20 18 20C19.0609 20 20.0783 20.4214 20.8284 21.1716C21.5786 21.9217 22 22.9391 22 24V29" stroke="#343330" stroke-width="2.5" stroke-linecap="round" stroke-linejoin="round"/>
<path d="M14 26H10C8.93913 26 7.92172 25.5786 7.17157 24.8284C6.42143 24.0783 6 23.0609 6 22C6 20.9391 5.57857 19.9217 4.82843 19.1716C4.07828 18.4214 3.06087 18 2 18" stroke="#343330" stroke-width="2.5" stroke-linecap="round" stroke-linejoin="round"/>
</svg>
