<svg width="25" height="24" viewBox="0 0 25 24" fill="none" xmlns="http://www.w3.org/2000/svg">
<path d="M12.2341 5.25C11.7932 4.56008 11.1857 3.9923 10.4675 3.59907C9.74937 3.20583 8.94376 2.99981 8.125 3C7.7608 3.62967 7.54236 4.33297 7.48574 5.05817C7.42912 5.78338 7.53575 6.51206 7.79781 7.19062C7.28476 7.94614 7.00713 8.83677 7 9.75V10.5C7 11.6935 7.47411 12.8381 8.31802 13.682C9.16193 14.5259 10.3065 15 11.5 15H16C17.1935 15 18.3381 14.5259 19.182 13.682C20.0259 12.8381 20.5 11.6935 20.5 10.5V9.75C20.4929 8.83677 20.2152 7.94614 19.7022 7.19062C19.9642 6.51206 20.0709 5.78338 20.0143 5.05817C19.9576 4.33297 19.7392 3.62967 19.375 3C18.5562 2.99981 17.7506 3.20583 17.0325 3.59907C16.3143 3.9923 15.7068 4.56008 15.2659 5.25H12.2341Z" stroke="white" stroke-width="2" stroke-linecap="round" stroke-linejoin="round"/>
<path d="M10.75 21.75V18C10.75 17.2044 11.0661 16.4413 11.6287 15.8787C12.1913 15.3161 12.9544 15 13.75 15C14.5456 15 15.3087 15.3161 15.8713 15.8787C16.4339 16.4413 16.75 17.2044 16.75 18V21.75" stroke="white" stroke-width="2" stroke-linecap="round" stroke-linejoin="round"/>
<path d="M10.75 19.5H7.75C6.95435 19.5 6.19129 19.1839 5.62868 18.6213C5.06607 18.0587 4.75 17.2956 4.75 16.5C4.75 15.7044 4.43393 14.9413 3.87132 14.3787C3.30871 13.8161 2.54565 13.5 1.75 13.5" stroke="white" stroke-width="2" stroke-linecap="round" stroke-linejoin="round"/>
</svg>
