<svg width="94" height="35" viewBox="0 0 94 35" fill="none" xmlns="http://www.w3.org/2000/svg">
<path d="M14.5162 8.35059L7.25707 4.17529L0 8.35059V4.17529L7.25811 0L14.5172 4.17529L14.5162 8.35059Z" fill="#A435F0"/>
<path d="M6.10352e-05 11.8568H3.80217V21.0608C3.80217 23.4387 5.58441 24.5979 7.25817 24.5979C8.94639 24.5979 10.7152 23.4079 10.7152 21.0289V11.8568H14.5173V21.2801C14.5173 23.4707 13.8261 25.1609 12.4437 26.3201C11.0603 27.4782 9.3328 28.0423 7.22614 28.0423C5.12155 28.0423 3.39303 27.4792 2.04266 26.3201C0.69126 25.162 6.10352e-05 23.5345 6.10352e-05 21.3737V11.8568ZM47.388 23.2957C46.237 24.3168 44.9259 24.8171 43.4309 24.8171C40.7033 24.8171 38.8746 23.2689 38.6679 20.8714H50.9525C50.9525 20.8714 51.0351 20.0973 51.0351 19.3705C51.0351 17.1161 50.3119 15.2374 48.8345 13.7036C47.3901 12.1698 45.5055 11.4183 43.2108 11.4183C40.7922 11.4183 38.8116 12.1698 37.2401 13.7036C35.7006 15.2374 34.9154 17.2407 34.9154 19.7462V19.8698C34.9154 22.3435 35.7006 24.3158 37.2401 25.7879C38.7795 27.2589 40.8221 28.0104 43.3049 28.0104C46.1916 28.0104 48.4883 26.8759 50.2117 24.9201L47.388 23.2957ZM40.1619 15.6132C41.0091 14.9554 42.0475 14.6115 43.2098 14.6115C44.3091 14.6115 45.2204 14.9554 46.0066 15.6451C46.7567 16.273 47.1617 17.044 47.1969 17.9304H38.7651C38.887 17.0142 39.3519 16.2421 40.163 15.6142L40.1619 15.6132ZM85.6612 30.1371C84.1187 33.7658 82.5048 35.0001 80.0304 35.0001H78.3153V31.6421H79.7018C80.5532 31.6421 81.3446 31.323 82.0988 29.5895L82.853 27.8539L76.3481 11.8568H80.2132L84.8326 23.378L89.578 11.8568H93.4421L85.6612 30.1371ZM29.3187 5.81522V13.2857C28.0727 12.1739 26.1344 11.512 24.2602 11.512C22.0285 11.512 20.144 12.2943 18.6046 13.8899C17.0961 15.4557 16.3419 17.3961 16.3419 19.7442C16.3419 22.0933 17.0961 24.0337 18.6046 25.6304C20.144 27.1961 22.0296 27.9795 24.2602 27.9795C26.8328 27.9795 28.4591 26.9717 29.3187 26.1821V27.6346H33.0898V5.81625L29.3187 5.81522ZM28.1873 23.1896C27.2761 24.0976 26.1137 24.568 24.7623 24.568C23.4109 24.568 22.3116 24.0976 21.4004 23.1896C20.5222 22.2817 20.081 21.1236 20.081 19.7462C20.081 18.3679 20.5211 17.2098 21.4004 16.3018C22.3116 15.3939 23.4109 14.9245 24.7623 14.9245C26.1137 14.9245 27.2761 15.3939 28.1873 16.3018C29.1296 17.2098 29.6028 18.3679 29.6028 19.7462C29.6028 21.1236 29.1296 22.2817 28.1873 23.1896ZM70.4858 11.5439C67.6218 11.5439 66.133 12.7277 65.1133 13.8683C64.7052 13.0932 63.5563 11.5439 60.8721 11.5439C58.6032 11.5439 57.2663 12.6865 56.5988 13.4998V11.8589H52.8608V27.6367H56.5988V18.5573C56.5988 16.4285 57.9192 14.8946 59.6777 14.8946C61.4703 14.8946 62.5066 16.2411 62.5066 18.4008V27.6357H66.2456V18.5562C66.2456 16.3965 67.533 14.8936 69.3865 14.8936C71.1781 14.8936 72.2143 16.2401 72.2143 18.3987V27.6346H75.9855V17.8676C75.9855 13.754 73.7662 11.5449 70.4858 11.5449V11.5439Z" fill="black"/>
</svg>
