<svg width="32" height="32" viewBox="0 0 32 32" fill="none" xmlns="http://www.w3.org/2000/svg">
<g clip-path="url(#clip0_159_102)">
<path d="M11.5 15.25C12.7426 15.25 13.75 14.1307 13.75 12.75C13.75 11.3693 12.7426 10.25 11.5 10.25C10.2574 10.25 9.25 11.3693 9.25 12.75C9.25 14.1307 10.2574 15.25 11.5 15.25Z" stroke="white" stroke-width="2" stroke-linecap="round" stroke-linejoin="round"/>
<path d="M8.125 17.4375C8.80598 16.1301 10.0428 15.25 11.5 15.25C12.9572 15.25 14.194 16.1301 14.875 17.4375" stroke="white" stroke-width="2" stroke-linecap="round" stroke-linejoin="round"/>
<path d="M17.5625 12.75H24.4375" stroke="white" stroke-width="2" stroke-linecap="round" stroke-linejoin="round"/>
<path d="M17.5625 15.0938H22.5625" stroke="white" stroke-width="2" stroke-linecap="round" stroke-linejoin="round"/>
<path d="M17.5625 17.4375H24.4375" stroke="white" stroke-width="2" stroke-linecap="round" stroke-linejoin="round"/>
<path d="M5 22V9C5 8.46957 5.21071 7.96086 5.58579 7.58579C5.96086 7.21071 6.46957 7 7 7H25C25.5304 7 26.0391 7.21071 26.4142 7.58579C26.7893 7.96086 27 8.46957 27 9V22" stroke="white" stroke-width="2" stroke-linecap="round" stroke-linejoin="round"/>
<path d="M3 22H29V24C29 24.5304 28.7893 25.0391 28.4142 25.4142C28.0391 25.7893 27.5304 26 27 26H5C4.46957 26 3.96086 25.7893 3.58579 25.4142C3.21071 25.0391 3 24.5304 3 24V22Z" stroke="white" stroke-width="2" stroke-linecap="round" stroke-linejoin="round"/>
</g>
<defs>
<clipPath id="clip0_159_102">
<rect width="32" height="32" fill="white"/>
</clipPath>
</defs>
</svg>
